<svg width="154" height="36" viewBox="0 0 154 36" fill="none" xmlns="http://www.w3.org/2000/svg">
<path d="M11.0063 33.0591L15.0943 35.4887L30.1931 26.5176V21.4844L11.0063 33.0591Z" fill="#0000FF"/>
<path d="M23.0777 4.73987L-6.10352e-05 18.6589V24.5214L27.971 7.65062L23.0777 4.73987Z" fill="#0000FF"/>
<path d="M30.1923 10.9674L2.22119 27.8382L7.11452 30.7455L30.1923 16.8264V10.9674Z" fill="#0000FF"/>
<path d="M15.0952 0L0 8.96771V14.001L19.1867 2.42961L15.0952 0Z" fill="#0000FF"/>
<path d="M62.1425 28.0395V19.6587H54.2316V28.0361H48.9123V7.44922H54.2316V15.5195H62.1425V7.44922H67.4618V28.0395H62.1425Z" fill="#0000FF"/>
<path d="M79.4615 7.44922H92.9208V11.469H84.7808V15.6116H92.5307V19.6314H84.7808V24.0231H93.0175V28.0429H79.4615V7.44922V7.44922Z" fill="#0000FF"/>
<path d="M120.743 13.9703C120.743 15.3523 120.339 16.5568 119.526 17.5874C118.717 18.6179 117.586 19.4028 116.136 19.9385L123.238 28.0395H116.687L110.752 20.8974H109.779V28.0395H104.459V7.44922H111.336C112.675 7.44922 113.917 7.5823 115.066 7.85188C116.211 8.11804 117.206 8.5207 118.048 9.05645C118.892 9.59219 119.551 10.2678 120.027 11.08C120.503 11.8955 120.743 12.8578 120.743 13.9703ZM115.617 14.0658C115.617 13.1376 115.238 12.4552 114.482 12.0116C113.724 11.568 112.668 11.3461 111.304 11.3461H109.782V17.1267H111.078C112.503 17.1267 113.616 16.8605 114.418 16.3214C115.216 15.7856 115.617 15.0349 115.617 14.0658Z" fill="#0000FF"/>
<path d="M153.754 17.7443C153.754 19.2083 153.507 20.5834 153.009 21.8699C152.512 23.1598 151.796 24.2859 150.854 25.255C149.913 26.2241 148.764 26.9919 147.4 27.5583C146.036 28.1248 144.479 28.408 142.729 28.408C140.978 28.408 139.414 28.1248 138.043 27.5583C136.669 26.9919 135.512 26.2241 134.571 25.255C133.633 24.2859 132.917 23.1564 132.43 21.8699C131.943 20.5834 131.7 19.2048 131.7 17.7443C131.7 16.2839 131.943 14.9053 132.43 13.6188C132.917 12.3323 133.629 11.2028 134.571 10.2337C135.512 9.26461 136.669 8.49682 138.043 7.93037C139.414 7.36392 140.978 7.08069 142.729 7.08069C144.479 7.08069 146.036 7.36392 147.4 7.93037C148.76 8.49682 149.913 9.26461 150.854 10.2337C151.796 11.2028 152.512 12.3323 153.009 13.6188C153.507 14.9053 153.754 16.2804 153.754 17.7443ZM142.729 24.3916C143.656 24.3916 144.479 24.2279 145.192 23.8969C145.904 23.5659 146.505 23.1086 146.992 22.5217C147.479 21.9347 147.84 21.2352 148.077 20.4196C148.313 19.6075 148.435 18.7135 148.435 17.7443C148.435 16.7752 148.317 15.8846 148.077 15.069C147.84 14.2569 147.479 13.554 146.992 12.967C146.505 12.3801 145.907 11.9228 145.192 11.5918C144.479 11.2608 143.656 11.097 142.729 11.097C141.777 11.097 140.95 11.2608 140.248 11.5918C139.547 11.9228 138.952 12.3801 138.465 12.967C137.979 13.554 137.617 14.2569 137.381 15.069C137.145 15.8846 137.023 16.7752 137.023 17.7443C137.023 18.7135 137.141 19.6041 137.381 20.4196C137.617 21.2352 137.979 21.9347 138.465 22.5217C138.952 23.1086 139.547 23.5693 140.248 23.8969C140.95 24.2244 141.777 24.3916 142.729 24.3916Z" fill="#0000FF"/>
</svg>
