<svg width="189" height="97" viewBox="0 0 189 97" fill="none" xmlns="http://www.w3.org/2000/svg">
<path d="M27.3338 68.2713L30.0225 69.9493L39.9341 63.7636V60.2935L27.3338 68.2713Z" fill="white"/>
<path d="M35.2611 48.751L20.106 58.3472V62.3883L38.4757 50.7566L35.2611 48.751Z" fill="white"/>
<path d="M39.9341 53.0454L21.5694 64.6721L24.779 66.6777L39.9341 57.0815V53.0454Z" fill="white"/>
<path d="M30.0225 45.4844L20.106 51.6651V55.1352L32.7063 47.1574L30.0225 45.4844Z" fill="white"/>
<path d="M84.7943 54.6088L81.9518 55.1102L80.7066 50.5032L79.2531 57.5179L76.619 57.9846L79.1986 45.6281L81.8129 45.1664L83.7525 52.0819L88.0833 44.0643L90.8911 43.5679L89.4376 55.7258L86.8034 56.1924L87.6368 49.3812L84.7943 54.6187V54.6088Z" fill="white"/>
<path d="M103.655 46.1145C103.655 47.0081 103.506 47.9216 103.204 48.8499C102.901 49.7783 102.474 50.6371 101.914 51.4265C101.353 52.2158 100.669 52.896 99.8502 53.4619C99.0366 54.0278 98.1139 54.4002 97.0871 54.5839C96.2189 54.7378 95.4698 54.7328 94.8249 54.569C94.185 54.4101 93.6542 54.1321 93.2325 53.7399C92.8109 53.3477 92.4984 52.8711 92.295 52.3052C92.0916 51.7392 91.9924 51.1336 91.9924 50.4882C91.9924 49.4506 92.1511 48.4577 92.4686 47.5095C92.7861 46.5613 93.2325 45.7025 93.803 44.9429C94.3735 44.1834 95.0631 43.543 95.8617 43.0217C96.6654 42.5054 97.5583 42.1579 98.5356 41.9891C99.4037 41.8352 100.153 41.8352 100.798 41.9841C101.438 42.1331 101.968 42.4011 102.39 42.7834C102.812 43.1657 103.124 43.6472 103.333 44.2181C103.541 44.789 103.645 45.4195 103.645 46.1096L103.655 46.1145ZM97.2458 52.3052C97.8361 52.2009 98.352 51.9626 98.8035 51.5903C99.2549 51.218 99.6319 50.7712 99.9395 50.2449C100.247 49.7187 100.48 49.1528 100.639 48.5372C100.803 47.9266 100.882 47.3259 100.882 46.745C100.882 46.3628 100.837 46.0053 100.743 45.6727C100.649 45.3351 100.505 45.0522 100.302 44.8188C100.098 44.5855 99.8403 44.4167 99.5228 44.3125C99.2053 44.2082 98.8233 44.1933 98.3719 44.2727C97.7816 44.377 97.2656 44.6153 96.8241 44.9926C96.3777 45.3699 96.0056 45.8216 95.698 46.3429C95.3905 46.8691 95.1623 47.4351 95.0035 48.0457C94.8497 48.6563 94.7704 49.2471 94.7704 49.823C94.7704 50.2052 94.815 50.5627 94.9093 50.9002C95.0035 51.2329 95.1474 51.5208 95.3409 51.7541C95.5393 51.9875 95.7923 52.1562 96.1048 52.2655C96.4174 52.3697 96.7993 52.3846 97.2458 52.3052Z" fill="white"/>
<path d="M104.399 53.0744L106.423 40.8123L110.58 40.0775C111.032 39.9981 111.453 39.9782 111.845 40.0229C112.237 40.0676 112.584 40.1719 112.882 40.3406C113.185 40.5094 113.418 40.7428 113.592 41.0357C113.765 41.3335 113.849 41.691 113.849 42.108C113.849 42.525 113.78 42.9321 113.641 43.2895C113.502 43.647 113.319 43.9746 113.081 44.2625C112.842 44.5554 112.565 44.8235 112.242 45.0618C111.92 45.3051 111.572 45.5185 111.19 45.7022C111.845 45.8015 112.371 46.02 112.763 46.3526C113.16 46.6902 113.358 47.1816 113.358 47.8369C113.358 48.5419 113.195 49.1575 112.867 49.6837C112.54 50.2099 112.123 50.6617 111.622 51.0291C111.121 51.3964 110.57 51.6893 109.975 51.9078C109.38 52.1262 108.809 52.2851 108.269 52.3794L104.389 53.0645L104.399 53.0744ZM110.67 48.2589C110.67 47.7923 110.506 47.4894 110.174 47.3504C109.846 47.2114 109.439 47.1816 108.953 47.271L108.001 47.4398L107.515 50.4035L108.606 50.2099C108.884 50.1603 109.147 50.0809 109.405 49.9716C109.658 49.8624 109.876 49.7234 110.064 49.5596C110.248 49.3958 110.397 49.2022 110.506 48.9887C110.615 48.7702 110.67 48.532 110.67 48.2688V48.2589ZM109.196 45.0966C109.692 45.0072 110.119 44.8037 110.476 44.476C110.833 44.1484 111.012 43.7313 111.012 43.2299C111.012 42.8924 110.898 42.6491 110.665 42.4902C110.432 42.3314 110.134 42.2867 109.762 42.3512L108.789 42.52L108.338 45.2455L109.186 45.0966H109.196Z" fill="white"/>
<path d="M117.391 50.786L114.618 51.2775L116.642 39.0153L119.415 38.5288L117.391 50.7909V50.786Z" fill="white"/>
<path d="M124.733 37.5856L123.086 47.5244L127.015 46.8294L126.633 49.1478L119.931 50.3293L121.955 38.0672L124.728 37.5757L124.733 37.5856Z" fill="white"/>
<path d="M131.212 48.3433L128.439 48.8298L130.463 36.5677L133.236 36.0762L131.212 48.3383V48.3433Z" fill="white"/>
<path d="M135.369 35.7092L143.197 34.3291L142.815 36.6673L136.669 45.1317L141.764 44.2331L141.416 46.5466L133.727 47.9019L133.504 45.6728L139.67 37.2035L134.992 38.0276L135.374 35.7092H135.369Z" fill="white"/>
<path d="M145.122 33.9864L152.047 32.7651L151.665 35.0637L147.508 35.7984L147.077 38.3948L151.025 37.6998L150.643 39.9983L146.71 40.6933L146.243 43.4585L150.45 42.7139L150.068 45.0124L143.088 46.2436L145.112 33.9814L145.122 33.9864Z" fill="white"/>
<path d="M162.009 34.3685C162.009 34.845 161.934 35.2968 161.79 35.7188C161.646 36.1407 161.443 36.5379 161.185 36.9053C160.927 37.2726 160.615 37.6102 160.247 37.9081C159.885 38.2109 159.488 38.484 159.062 38.7272L162.038 42.9023L158.819 43.4732L156.309 39.7151L155.634 39.8343L154.925 44.1583L152.151 44.6498L154.175 32.3876L158.194 31.6777C158.784 31.5735 159.315 31.5635 159.786 31.6479C160.257 31.7323 160.659 31.8912 160.992 32.1245C161.319 32.3579 161.572 32.6657 161.746 33.0479C161.919 33.4302 162.004 33.867 162.004 34.3685H162.009ZM156.656 37.4563C157.003 37.3968 157.335 37.3024 157.653 37.1833C157.97 37.0592 158.248 36.9003 158.486 36.7017C158.725 36.5032 158.913 36.2649 159.057 35.9918C159.201 35.7188 159.275 35.3911 159.275 35.0188C159.275 34.5273 159.131 34.2046 158.849 34.0507C158.566 33.8968 158.209 33.8571 157.782 33.9316L156.601 34.1401L156.031 37.5655L156.656 37.4563Z" fill="white"/>
<path d="M170.824 37.8884C170.824 38.4494 170.715 38.9756 170.501 39.4621C170.288 39.9536 169.99 40.3905 169.608 40.7827C169.226 41.1699 168.77 41.4975 168.239 41.7656C167.708 42.0337 167.123 42.2223 166.488 42.3316C165.932 42.4309 165.327 42.4706 164.667 42.4457C164.008 42.4259 163.427 42.3266 162.916 42.1578L163.507 39.8543C163.978 40.0082 164.469 40.1075 164.97 40.1522C165.471 40.1969 165.947 40.177 166.399 40.0976C166.597 40.0628 166.791 40.0132 166.979 39.9437C167.168 39.8742 167.341 39.7798 167.5 39.6657C167.654 39.5515 167.778 39.4125 167.872 39.2536C167.966 39.0948 168.011 38.9061 168.011 38.6926C168.011 38.3948 167.897 38.1416 167.664 37.9331C167.431 37.7246 167.039 37.4764 166.488 37.1934C166.141 37.0147 165.818 36.826 165.516 36.6225C165.213 36.4189 164.955 36.1856 164.737 35.9275C164.519 35.6693 164.345 35.3814 164.226 35.0587C164.102 34.741 164.042 34.3736 164.042 33.9566C164.042 33.3857 164.137 32.8644 164.32 32.3878C164.504 31.9162 164.772 31.4992 165.119 31.1467C165.466 30.7942 165.883 30.4964 166.364 30.2581C166.85 30.0198 167.391 29.846 167.991 29.7368C169.202 29.5233 170.323 29.6375 171.35 30.0744L170.779 32.3034C170.397 32.1446 169.976 32.0304 169.514 31.9559C169.053 31.8814 168.606 31.8814 168.18 31.9559C167.788 32.0254 167.46 32.1446 167.202 32.3183C166.944 32.4871 166.811 32.7651 166.811 33.1474C166.811 33.3956 166.905 33.6091 167.098 33.7828C167.287 33.9566 167.619 34.1899 168.095 34.4729C168.443 34.6863 168.78 34.8948 169.107 35.1083C169.435 35.3218 169.723 35.5551 169.976 35.8232C170.229 36.0913 170.427 36.3891 170.581 36.7267C170.735 37.0643 170.814 37.4515 170.814 37.8934L170.824 37.8884Z" fill="white"/>
<path d="M189 0L0 33.2666V97L58.6957 86.669L61.9004 86.113V86.1031L189 63.7334V0ZM3.73545 36.2602L58.2592 26.7186V82.8613L3.73545 92.5122V36.2602ZM185.265 60.3675L61.8805 82.2159L61.573 26.1328L185.265 4.48784V60.3675Z" fill="white"/>
</svg>
