<svg width="35" height="35" viewBox="0 0 35 35" fill="none" xmlns="http://www.w3.org/2000/svg">
<path d="M17.5 22.9185C12.613 22.9185 8.63654 26.8941 8.63654 31.7816C8.63654 32.0646 8.65021 32.3442 8.67687 32.6197C11.3258 34.1714 14.3486 34.9999 17.5 34.9999C20.6514 34.9999 23.6742 34.1714 26.3232 32.6197C26.3491 32.3435 26.3635 32.0646 26.3635 31.7816C26.3635 26.8948 22.3877 22.9185 17.5 22.9185V22.9185Z" fill="white"/>
<path d="M29.8744 5.12542C26.5692 1.82035 22.1744 0 17.5 0C12.8256 0 8.43076 1.82035 5.12559 5.12542C1.82041 8.43049 0 12.8252 0 17.4994C0 22.1737 1.82041 26.5684 5.12559 29.8734C5.5959 30.3444 6.08945 30.7833 6.60215 31.1927C6.83184 26.8958 9.55801 23.251 13.3526 21.6863C11.2663 20.3267 9.88477 17.9731 9.88477 15.3024C9.88477 11.1033 13.3007 7.68745 17.5 7.68745C21.6993 7.68745 25.1152 11.1033 25.1152 15.3024C25.1152 17.9731 23.7337 20.326 21.6474 21.6863C25.4427 23.251 28.1688 26.8958 28.3979 31.1927C28.9105 30.7833 29.4034 30.3437 29.8744 29.8734C33.1796 26.5684 35 22.1737 35 17.4994C35 12.8252 33.1796 8.43049 29.8744 5.12542V5.12542Z" fill="white"/>
<path d="M23.0645 15.303C23.0645 12.2345 20.568 9.73877 17.5 9.73877C14.432 9.73877 11.9355 12.2352 11.9355 15.303C11.9355 18.3709 14.432 20.8673 17.5 20.8673C20.568 20.8673 23.0645 18.3709 23.0645 15.303V15.303Z" fill="white"/>
</svg>
